<mxfile host="app.diagrams.net" modified="2021-02-11T13:19:56.353Z" agent="5.0 (Windows)" etag="KOEPHoQZT2gY_8LHFvBL" version="14.3.0" type="github">
  <diagram id="Z--Fzyrpg1OMwcZ7J-i9" name="Page-1">
    <mxGraphModel dx="868" dy="479" grid="1" gridSize="10" guides="1" tooltips="1" connect="1" arrows="1" fold="1" page="1" pageScale="1" pageWidth="827" pageHeight="1169" math="0" shadow="0">
      <root>
        <mxCell id="0" />
        <mxCell id="1" parent="0" />
        <mxCell id="Z7ldGJy5FfXG61_EnuEu-2" value="Basic Flow" style="swimlane;html=1;childLayout=stackLayout;resizeParent=1;resizeParentMax=0;startSize=20;swimlaneFillColor=#ffffff;" parent="1" vertex="1">
          <mxGeometry x="170" y="110" width="412.5" height="570" as="geometry" />
        </mxCell>
        <mxCell id="Z7ldGJy5FfXG61_EnuEu-3" value="Customer" style="swimlane;html=1;startSize=20;" parent="Z7ldGJy5FfXG61_EnuEu-2" vertex="1">
          <mxGeometry y="20" width="120" height="550" as="geometry" />
        </mxCell>
        <mxCell id="Z7ldGJy5FfXG61_EnuEu-11" style="edgeStyle=orthogonalEdgeStyle;rounded=0;orthogonalLoop=1;jettySize=auto;html=1;exitX=0.5;exitY=1;exitDx=0;exitDy=0;entryX=0.5;entryY=0;entryDx=0;entryDy=0;" parent="Z7ldGJy5FfXG61_EnuEu-3" source="Z7ldGJy5FfXG61_EnuEu-7" target="Z7ldGJy5FfXG61_EnuEu-8" edge="1">
          <mxGeometry relative="1" as="geometry" />
        </mxCell>
        <mxCell id="Z7ldGJy5FfXG61_EnuEu-7" value="" style="ellipse;whiteSpace=wrap;html=1;aspect=fixed;fillColor=#000000;" parent="Z7ldGJy5FfXG61_EnuEu-3" vertex="1">
          <mxGeometry x="45" y="30" width="30" height="30" as="geometry" />
        </mxCell>
        <mxCell id="Z7ldGJy5FfXG61_EnuEu-8" value="Insert card" style="rounded=1;whiteSpace=wrap;html=1;fillColor=#d5e8d4;strokeColor=#82b366;" parent="Z7ldGJy5FfXG61_EnuEu-3" vertex="1">
          <mxGeometry x="15" y="100" width="90" height="50" as="geometry" />
        </mxCell>
        <mxCell id="Z7ldGJy5FfXG61_EnuEu-19" value="Select withdrawal" style="rounded=1;whiteSpace=wrap;html=1;fillColor=#d5e8d4;strokeColor=#82b366;" parent="Z7ldGJy5FfXG61_EnuEu-3" vertex="1">
          <mxGeometry x="15" y="180" width="90" height="50" as="geometry" />
        </mxCell>
        <mxCell id="Z7ldGJy5FfXG61_EnuEu-21" value="Select amount" style="rounded=1;whiteSpace=wrap;html=1;fillColor=#d5e8d4;strokeColor=#82b366;" parent="Z7ldGJy5FfXG61_EnuEu-3" vertex="1">
          <mxGeometry x="15" y="260" width="90" height="50" as="geometry" />
        </mxCell>
        <mxCell id="Z7ldGJy5FfXG61_EnuEu-22" value="" style="edgeStyle=orthogonalEdgeStyle;rounded=0;orthogonalLoop=1;jettySize=auto;html=1;" parent="Z7ldGJy5FfXG61_EnuEu-3" source="Z7ldGJy5FfXG61_EnuEu-19" target="Z7ldGJy5FfXG61_EnuEu-21" edge="1">
          <mxGeometry relative="1" as="geometry" />
        </mxCell>
        <mxCell id="Z7ldGJy5FfXG61_EnuEu-4" value="ATM" style="swimlane;html=1;startSize=20;fillColor=#FFFFFF;swimlaneFillColor=#ffffff;" parent="Z7ldGJy5FfXG61_EnuEu-2" vertex="1">
          <mxGeometry x="120" y="20" width="145" height="550" as="geometry">
            <mxRectangle x="120" y="20" width="30" height="550" as="alternateBounds" />
          </mxGeometry>
        </mxCell>
        <mxCell id="Z7ldGJy5FfXG61_EnuEu-14" value="Read card" style="rounded=1;whiteSpace=wrap;html=1;fillColor=#d5e8d4;strokeColor=#82b366;" parent="Z7ldGJy5FfXG61_EnuEu-4" vertex="1">
          <mxGeometry x="32.5" y="100" width="90" height="50" as="geometry" />
        </mxCell>
        <mxCell id="Z7ldGJy5FfXG61_EnuEu-25" value="Eject card" style="rounded=1;whiteSpace=wrap;html=1;fillColor=#d5e8d4;strokeColor=#82b366;" parent="Z7ldGJy5FfXG61_EnuEu-4" vertex="1">
          <mxGeometry x="32.5" y="340" width="90" height="50" as="geometry" />
        </mxCell>
        <mxCell id="Z7ldGJy5FfXG61_EnuEu-27" value="Dispense cash" style="rounded=1;whiteSpace=wrap;html=1;fillColor=#d5e8d4;strokeColor=#82b366;" parent="Z7ldGJy5FfXG61_EnuEu-4" vertex="1">
          <mxGeometry x="32.5" y="420" width="90" height="50" as="geometry" />
        </mxCell>
        <mxCell id="Z7ldGJy5FfXG61_EnuEu-28" value="" style="edgeStyle=orthogonalEdgeStyle;rounded=0;orthogonalLoop=1;jettySize=auto;html=1;" parent="Z7ldGJy5FfXG61_EnuEu-4" source="Z7ldGJy5FfXG61_EnuEu-25" target="Z7ldGJy5FfXG61_EnuEu-27" edge="1">
          <mxGeometry relative="1" as="geometry" />
        </mxCell>
        <mxCell id="Z7ldGJy5FfXG61_EnuEu-5" value="Bank System" style="swimlane;html=1;startSize=20;" parent="Z7ldGJy5FfXG61_EnuEu-2" vertex="1">
          <mxGeometry x="265" y="20" width="147.5" height="550" as="geometry" />
        </mxCell>
        <mxCell id="Z7ldGJy5FfXG61_EnuEu-16" value="Authenticate customer" style="rounded=1;whiteSpace=wrap;html=1;fillColor=#d5e8d4;strokeColor=#82b366;" parent="Z7ldGJy5FfXG61_EnuEu-5" vertex="1">
          <mxGeometry x="23.75" y="100" width="90" height="50" as="geometry" />
        </mxCell>
        <mxCell id="Z7ldGJy5FfXG61_EnuEu-23" value="Confirm withdrawal" style="rounded=1;whiteSpace=wrap;html=1;fillColor=#d5e8d4;strokeColor=#82b366;" parent="Z7ldGJy5FfXG61_EnuEu-5" vertex="1">
          <mxGeometry x="23.75" y="260" width="90" height="50" as="geometry" />
        </mxCell>
        <mxCell id="00alCKiWdHoaQQ50VApe-3" style="edgeStyle=orthogonalEdgeStyle;rounded=0;orthogonalLoop=1;jettySize=auto;html=1;exitX=0.5;exitY=1;exitDx=0;exitDy=0;" edge="1" parent="Z7ldGJy5FfXG61_EnuEu-5" source="00alCKiWdHoaQQ50VApe-1" target="Z7ldGJy5FfXG61_EnuEu-40">
          <mxGeometry relative="1" as="geometry" />
        </mxCell>
        <mxCell id="00alCKiWdHoaQQ50VApe-1" value="Record transaction log" style="rounded=1;whiteSpace=wrap;html=1;fillColor=#d5e8d4;strokeColor=#82b366;" vertex="1" parent="Z7ldGJy5FfXG61_EnuEu-5">
          <mxGeometry x="28.75" y="420" width="90" height="50" as="geometry" />
        </mxCell>
        <mxCell id="Z7ldGJy5FfXG61_EnuEu-40" value="" style="ellipse;whiteSpace=wrap;html=1;aspect=fixed;strokeColor=#000000;gradientColor=none;fillColor=#FFFFFF;" parent="Z7ldGJy5FfXG61_EnuEu-5" vertex="1">
          <mxGeometry x="53.75" y="500" width="40" height="40" as="geometry" />
        </mxCell>
        <mxCell id="Z7ldGJy5FfXG61_EnuEu-39" value="" style="ellipse;whiteSpace=wrap;html=1;aspect=fixed;strokeColor=#000000;gradientColor=none;fillColor=#000000;" parent="Z7ldGJy5FfXG61_EnuEu-5" vertex="1">
          <mxGeometry x="58.75" y="505" width="30" height="30" as="geometry" />
        </mxCell>
        <mxCell id="00alCKiWdHoaQQ50VApe-4" value="" style="rounded=0;whiteSpace=wrap;html=1;fillColor=#dae8fc;strokeColor=#6c8ebf;" vertex="1" parent="Z7ldGJy5FfXG61_EnuEu-5">
          <mxGeometry x="105" y="115" width="20" height="20" as="geometry" />
        </mxCell>
        <mxCell id="Z7ldGJy5FfXG61_EnuEu-15" value="" style="edgeStyle=orthogonalEdgeStyle;rounded=0;orthogonalLoop=1;jettySize=auto;html=1;" parent="Z7ldGJy5FfXG61_EnuEu-2" source="Z7ldGJy5FfXG61_EnuEu-8" target="Z7ldGJy5FfXG61_EnuEu-14" edge="1">
          <mxGeometry relative="1" as="geometry" />
        </mxCell>
        <mxCell id="Z7ldGJy5FfXG61_EnuEu-17" value="" style="edgeStyle=orthogonalEdgeStyle;rounded=0;orthogonalLoop=1;jettySize=auto;html=1;" parent="Z7ldGJy5FfXG61_EnuEu-2" source="Z7ldGJy5FfXG61_EnuEu-14" target="Z7ldGJy5FfXG61_EnuEu-16" edge="1">
          <mxGeometry relative="1" as="geometry" />
        </mxCell>
        <mxCell id="Z7ldGJy5FfXG61_EnuEu-20" value="" style="edgeStyle=orthogonalEdgeStyle;rounded=0;orthogonalLoop=1;jettySize=auto;html=1;" parent="Z7ldGJy5FfXG61_EnuEu-2" source="Z7ldGJy5FfXG61_EnuEu-16" target="Z7ldGJy5FfXG61_EnuEu-19" edge="1">
          <mxGeometry relative="1" as="geometry">
            <Array as="points">
              <mxPoint x="344" y="225" />
            </Array>
          </mxGeometry>
        </mxCell>
        <mxCell id="Z7ldGJy5FfXG61_EnuEu-24" value="" style="edgeStyle=orthogonalEdgeStyle;rounded=0;orthogonalLoop=1;jettySize=auto;html=1;" parent="Z7ldGJy5FfXG61_EnuEu-2" source="Z7ldGJy5FfXG61_EnuEu-21" target="Z7ldGJy5FfXG61_EnuEu-23" edge="1">
          <mxGeometry relative="1" as="geometry" />
        </mxCell>
        <mxCell id="Z7ldGJy5FfXG61_EnuEu-26" value="" style="edgeStyle=orthogonalEdgeStyle;rounded=0;orthogonalLoop=1;jettySize=auto;html=1;" parent="Z7ldGJy5FfXG61_EnuEu-2" source="Z7ldGJy5FfXG61_EnuEu-23" target="Z7ldGJy5FfXG61_EnuEu-25" edge="1">
          <mxGeometry relative="1" as="geometry">
            <Array as="points">
              <mxPoint x="340" y="385" />
            </Array>
          </mxGeometry>
        </mxCell>
        <mxCell id="00alCKiWdHoaQQ50VApe-2" value="" style="edgeStyle=orthogonalEdgeStyle;rounded=0;orthogonalLoop=1;jettySize=auto;html=1;" edge="1" parent="Z7ldGJy5FfXG61_EnuEu-2" source="Z7ldGJy5FfXG61_EnuEu-27" target="00alCKiWdHoaQQ50VApe-1">
          <mxGeometry relative="1" as="geometry" />
        </mxCell>
        <mxCell id="00alCKiWdHoaQQ50VApe-32" value="" style="rounded=0;whiteSpace=wrap;html=1;fillColor=#dae8fc;strokeColor=#6c8ebf;" vertex="1" parent="1">
          <mxGeometry x="620" y="245" width="20" height="20" as="geometry" />
        </mxCell>
        <mxCell id="00alCKiWdHoaQQ50VApe-35" value="subflow" style="edgeStyle=orthogonalEdgeStyle;rounded=0;orthogonalLoop=1;jettySize=auto;html=1;exitX=1;exitY=0.5;exitDx=0;exitDy=0;entryX=0;entryY=0.5;entryDx=0;entryDy=0;" edge="1" parent="1" source="00alCKiWdHoaQQ50VApe-4" target="00alCKiWdHoaQQ50VApe-32">
          <mxGeometry relative="1" as="geometry" />
        </mxCell>
        <mxCell id="00alCKiWdHoaQQ50VApe-37" value="Authenticate customer" style="swimlane;html=1;childLayout=stackLayout;resizeParent=1;resizeParentMax=0;startSize=20;" vertex="1" parent="1">
          <mxGeometry x="640" y="80" width="240" height="480" as="geometry" />
        </mxCell>
        <mxCell id="00alCKiWdHoaQQ50VApe-38" value="ATM" style="swimlane;html=1;startSize=20;" vertex="1" parent="00alCKiWdHoaQQ50VApe-37">
          <mxGeometry y="20" width="120" height="460" as="geometry" />
        </mxCell>
        <mxCell id="00alCKiWdHoaQQ50VApe-41" value="Send card information" style="rounded=1;whiteSpace=wrap;html=1;fillColor=#d5e8d4;strokeColor=#82b366;" vertex="1" parent="00alCKiWdHoaQQ50VApe-38">
          <mxGeometry x="15" y="30" width="90" height="50" as="geometry" />
        </mxCell>
        <mxCell id="00alCKiWdHoaQQ50VApe-39" value="Bank System" style="swimlane;html=1;startSize=20;" vertex="1" parent="00alCKiWdHoaQQ50VApe-37">
          <mxGeometry x="120" y="20" width="120" height="460" as="geometry" />
        </mxCell>
      </root>
    </mxGraphModel>
  </diagram>
</mxfile>
